<?xml version="1.0" encoding="UTF-8"?>
<svg id="Layer_2" data-name="Layer 2" xmlns="http://www.w3.org/2000/svg" viewBox="0 0 298.96 39.81">
  <defs>
    <style>
      .cls-1 {
        fill: #e0d1be;
      }
    </style>
  </defs>
  <g id="Layer_1-2" data-name="Layer 1">
    <g>
      <polygon class="cls-1" points="50.61 23.86 46.02 15.92 46.02 15.83 36.97 15.83 41.4 8.15 41.45 8.15 41.45 8 36.83 0 0 0 4.71 8.15 32.13 8.15 36.56 15.83 9.14 15.83 13.85 23.98 41.13 23.98 36.7 31.66 18.28 31.66 22.99 39.81 32.26 39.81 36.83 31.9 45.97 31.9 50.61 23.86"/>
      <g>
        <path class="cls-1" d="M73.33,34.9h-14.85V5.53h14.85c.86,0,1.71.08,2.55.23.84.15,1.66.4,2.47.76.81.36,1.51.79,2.1,1.3.59.51,1.06,1.16,1.39,1.95.33.79.47,1.66.42,2.61-.07.97-.4,1.81-1,2.52-.6.71-1.36,1.25-2.26,1.62-.91.37-1.81.64-2.71.81-.9.17-1.8.26-2.7.26,1.3.08,2.51.32,3.64.72,1.13.4,2.14.94,3.03,1.63.89.69,1.6,1.57,2.12,2.64.52,1.07.78,2.28.78,3.61s-.15,2.42-.46,3.41c-.31.99-.74,1.82-1.3,2.49-.56.67-1.25,1.22-2.08,1.64-.83.42-1.73.73-2.7.91-.98.18-2.07.28-3.27.28ZM63.16,9.73v7.84h9.5c1.43,0,2.65-.37,3.66-1.11,1-.74,1.51-1.72,1.51-2.95s-.48-2.22-1.43-2.85c-.96-.63-2.2-.94-3.73-.94h-9.5ZM72.97,21.61h-9.81v9.09h9.81c1.79,0,3.14-.35,4.07-1.04.92-.7,1.38-1.91,1.38-3.65,0-1.46-.5-2.56-1.51-3.3-1-.74-2.32-1.11-3.94-1.11Z"/>
        <path class="cls-1" d="M86.49,24.37c0-3.56,1.04-6.22,3.11-7.98,2.08-1.75,5.05-2.63,8.93-2.63s6.8.85,8.82,2.56c2.01,1.71,3.02,4.39,3.02,8.05,0,3.47-1.03,6.09-3.1,7.86-2.07,1.78-4.98,2.66-8.74,2.66-1.78,0-3.39-.22-4.84-.67-1.45-.44-2.72-1.09-3.8-1.95-1.08-.85-1.92-1.96-2.51-3.31-.59-1.35-.89-2.89-.89-4.61ZM91.06,24.33c0,2.35.62,4.02,1.86,5.03,1.24,1,3.13,1.51,5.65,1.51,2.29,0,4.07-.57,5.33-1.7,1.26-1.13,1.88-2.74,1.88-4.83s-.62-3.77-1.87-4.86c-1.25-1.1-3.03-1.65-5.34-1.65s-4.19.57-5.52,1.71c-1.33,1.14-2,2.74-2,4.8Z"/>
        <path class="cls-1" d="M118.41,23.66v11.24h-4.71V13.97h4.71v8.89c0-1.45.23-2.75.7-3.9.46-1.15,1.04-2.07,1.74-2.76.7-.68,1.49-1.25,2.38-1.71.89-.46,1.71-.77,2.47-.94.76-.17,1.47-.26,2.14-.26.51,0,1,.02,1.5.07.49.05,1.07.15,1.72.32.66.16,1.27.38,1.83.63.57.26,1.14.63,1.72,1.12.58.48,1.07,1.04,1.47,1.67.4.63.73,1.42.98,2.38.25.96.38,2.01.38,3.17v12.25h-4.69v-11.24c0-1.94-.6-3.43-1.79-4.48-1.19-1.04-2.71-1.57-4.54-1.57-.94,0-1.88.13-2.81.39-.93.26-1.79.63-2.57,1.12-.79.48-1.42,1.12-1.9,1.91-.48.79-.73,1.67-.73,2.62Z"/>
        <path class="cls-1" d="M165.12,34.31h-4.57v-8.05c-.26,1.46-.69,2.74-1.29,3.84-.6,1.1-1.24,1.94-1.91,2.53-.68.59-1.43,1.06-2.27,1.42-.84.36-1.56.59-2.17.7-.61.1-1.22.15-1.83.15-3.39,0-5.95-.98-7.68-2.95-1.73-1.97-2.6-4.65-2.6-8.05,0-2.08.35-3.91,1.07-5.5.71-1.59,1.82-2.86,3.32-3.81,1.5-.95,3.31-1.42,5.43-1.42.6,0,1.22.05,1.84.14.63.1,1.39.32,2.28.69.89.36,1.7.83,2.42,1.41.72.58,1.4,1.42,2.04,2.52.64,1.1,1.1,2.38,1.37,3.84V4.98h4.57v29.33ZM160.51,23.9c0-.87-.16-1.69-.47-2.46-.31-.76-.78-1.45-1.4-2.06-.62-.61-1.46-1.09-2.51-1.44-1.05-.35-2.26-.53-3.63-.53-2.03,0-3.73.62-5.08,1.87-1.35,1.25-2.03,2.79-2.03,4.62s.67,3.51,2.02,4.79c1.34,1.28,3.08,1.93,5.21,1.93,1.35,0,2.55-.18,3.58-.55,1.04-.37,1.86-.87,2.48-1.51.61-.63,1.07-1.34,1.37-2.13.3-.78.45-1.63.45-2.53Z"/>
        <path class="cls-1" d="M196.31,5.02v3.67h-10.06c-1.69,0-2.7.42-3.01,1.25-.31.83.13,1.9,1.33,3.2l12.33,13.33c.74-1.2,1.3-2.54,1.68-4,.38-1.47.57-2.92.57-4.35h4.32c0,2.1-.32,4.14-.97,6.11-.65,1.97-1.58,3.74-2.8,5.29l4.49,4.87h-5.33l-1.93-2.13c-2.4,1.76-5.11,2.64-8.11,2.64-1.05,0-2.08-.1-3.09-.31-1.01-.2-1.98-.53-2.91-.97-.93-.44-1.74-.99-2.44-1.63-.7-.64-1.25-1.43-1.67-2.37-.42-.94-.62-1.96-.62-3.08,0-1.64.58-2.99,1.75-4.06,1.17-1.07,2.57-1.6,4.21-1.6,1.16,0,2.28.29,3.36.88l-6.59-7.23c-.97-.97-1.57-2.02-1.8-3.16-.23-1.14-.14-2.17.29-3.1.42-.93,1.14-1.7,2.16-2.32,1.02-.62,2.2-.93,3.55-.93h11.29ZM194.34,29.39l-6.76-7.41c-.71-.26-1.35-.39-1.93-.39-1.31,0-2.3.49-2.96,1.45-.66.97-.82,2.11-.48,3.42.48,1.47,1.36,2.59,2.63,3.35,1.28.76,2.88,1.14,4.82,1.14,1.72,0,3.28-.52,4.67-1.56Z"/>
        <path class="cls-1" d="M231.38,34.9h-9.99l-11.29-29.37h4.96l11.33,29.25h.08l11.04-29.25h5.02l-11.14,29.37Z"/>
        <path class="cls-1" d="M250.07,34.9c-1.05,0-2.07-.14-3.05-.42s-1.88-.69-2.68-1.22c-.81-.53-1.45-1.23-1.94-2.08-.48-.85-.73-1.81-.73-2.88s.26-1.95.79-2.74c.53-.79,1.22-1.41,2.09-1.86.87-.45,1.78-.79,2.73-1.02.96-.23,1.95-.37,2.99-.41l10.36-.45v-.72c0-2.72-2.38-4.08-7.13-4.08s-7,1.3-7,3.91h-4.32c0-1.13.2-2.14.6-3.03.4-.89.94-1.61,1.62-2.17.68-.56,1.5-1.02,2.47-1.39.97-.37,1.98-.63,3.03-.78,1.05-.15,2.2-.23,3.44-.23,1.9,0,3.56.16,4.98.49,1.42.33,2.65.84,3.69,1.55,1.04.7,1.82,1.65,2.36,2.83.53,1.18.8,2.59.8,4.23v11.88h-4.44v-7.48c0,1.31-.27,2.47-.82,3.48-.55,1.01-1.21,1.8-2,2.36-.79.56-1.69,1.02-2.72,1.37-1.03.35-1.95.59-2.76.7-.81.11-1.59.16-2.35.16ZM251.48,31.42c.71-.01,1.45-.06,2.21-.15.76-.09,1.58-.25,2.44-.48.86-.23,1.62-.52,2.28-.86.66-.34,1.21-.8,1.65-1.36.44-.57.66-1.2.66-1.89v-1.6l-8.64.39c-.9.03-1.75.12-2.56.28-.81.16-1.54.44-2.19.86-.66.42-.98.93-.98,1.55,0,.76.27,1.4.82,1.91.55.51,1.19.87,1.93,1.07.74.2,1.54.3,2.4.3Z"/>
        <path class="cls-1" d="M268.51,34.9V5.53h4.4v29.37h-4.4Z"/>
        <path class="cls-1" d="M287.63,34.9c-3.51,0-6.27-.94-8.29-2.82-2.02-1.88-3.03-4.54-3.03-7.98s.96-6.31,2.89-8.13c1.93-1.82,4.68-2.72,8.27-2.72s6.45.93,8.47,2.8c2.01,1.86,3.02,4.56,3.02,8.1v1.39h-18.25c0,1.72.65,3.07,1.94,4.03,1.29.97,2.98,1.45,5.07,1.45,1.84,0,3.33-.31,4.45-.92,1.13-.61,1.84-1.5,2.14-2.64h4.32c-.94,4.96-4.61,7.43-11,7.43ZM280.67,22.47l13.76.04c0-1.65-.68-2.96-2.04-3.92-1.36-.96-2.99-1.44-4.88-1.44s-3.61.44-4.91,1.32c-1.29.88-1.94,2.22-1.94,4Z"/>
      </g>
    </g>
  </g>
</svg>