<svg xmlns="http://www.w3.org/2000/svg" xmlns:xlink="http://www.w3.org/1999/xlink" viewBox="117.759994848 33.44619456790123 388.79998299 62.84476049382716" id="svg1" version="1.1" style="max-height: 500px" width="388.79998299" height="62.84476049382716">
  <defs id="defs1">
    
    <clipPath id="clipPath90" clipPathUnits="userSpaceOnUse">
      <path id="path90" transform="translate(-110.55783,-46.543301)" d="M 0,97.063 H 400 V 0 H 0 Z"/>
    </clipPath>
    <clipPath id="clipPath92" clipPathUnits="userSpaceOnUse">
      <path id="path92" transform="translate(-131.70948,-43.359201)" d="M 0,97.063 H 400 V 0 H 0 Z"/>
    </clipPath>
    <clipPath id="clipPath94" clipPathUnits="userSpaceOnUse">
      <path id="path94" transform="translate(-163.68303,-44.149101)" d="M 0,97.063 H 400 V 0 H 0 Z"/>
    </clipPath>
    <clipPath id="clipPath96" clipPathUnits="userSpaceOnUse">
      <path id="path96" transform="translate(-212.89548,-43.862001)" d="M 0,97.063 H 400 V 0 H 0 Z"/>
    </clipPath>
    <clipPath id="clipPath98" clipPathUnits="userSpaceOnUse">
      <path id="path98" transform="translate(-252.44553,-37.445601)" d="M 0,97.063 H 400 V 0 H 0 Z"/>
    </clipPath>
    <clipPath id="clipPath100" clipPathUnits="userSpaceOnUse">
      <path id="path100" transform="translate(-295.74543,-31.004801)" d="M 0,97.063 H 400 V 0 H 0 Z"/>
    </clipPath>
    <clipPath id="clipPath102" clipPathUnits="userSpaceOnUse">
      <path id="path102" transform="translate(-319.24353,-35.075101)" d="M 0,97.063 H 400 V 0 H 0 Z"/>
    </clipPath>
    <clipPath id="clipPath104" clipPathUnits="userSpaceOnUse">
      <path id="path104" transform="translate(-2.5000002e-5)" d="M 0,97.063 H 400 V 0 H 0 Z"/>
    </clipPath>
    <clipPath id="clipPath106" clipPathUnits="userSpaceOnUse">
      <path id="path106" transform="translate(-353.35863,-45.538101)" d="M 0,97.063 H 400 V 0 H 0 Z"/>
    </clipPath>
  </defs>
  
    
  
  <g transform="translate(-4426.6664)" id="layer-MC0">
    <path transform="matrix(1.3333333,0,0,-1.3333333,4539.2328,70.877067)" style="fill:#b68d40;fill-opacity:1;fill-rule:nonzero;stroke:none" d="m 0,0 -5.363,9.289 v 0.102 h -10.585 l 5.183,8.978 h 0.059 v 0.175 l -5.401,9.353 h -43.057 l 5.501,-9.528 h 32.057 l 5.183,-8.978 h -32.056 l 5.501,-9.528 h 31.898 l -5.185,-8.98 h -21.528 l 5.501,-9.528 h 10.844 l 5.342,9.254 h 10.685 z" id="path88"/>
    <path clip-path="url(#clipPath90)" transform="matrix(1.3333333,0,0,-1.3333333,4574.0771,67.359867)" style="fill:#f4ebd0;fill-opacity:1;fill-rule:nonzero;stroke:none" d="M 0,0 H -11.468 V -10.63 H 0 c 2.091,0 3.675,0.407 4.753,1.221 1.077,0.814 1.616,2.234 1.616,4.262 0,1.707 -0.587,2.993 -1.76,3.854 C 3.436,-0.431 1.899,0 0,0 m -11.468,13.887 v -9.17 h 11.109 c 1.676,0 3.101,0.431 4.274,1.293 1.173,0.862 1.759,2.011 1.759,3.447 0,1.485 -0.558,2.594 -1.676,3.328 -1.117,0.734 -2.57,1.102 -4.357,1.102 z M 0.431,-15.538 H -16.927 V 18.795 H 0.431 c 1.006,0 1.999,-0.088 2.981,-0.263 0.982,-0.176 1.943,-0.471 2.885,-0.886 0.942,-0.416 1.76,-0.922 2.454,-1.52 0.694,-0.599 1.237,-1.357 1.628,-2.275 0.391,-0.918 0.555,-1.936 0.491,-3.053 C 10.79,9.665 10.399,8.683 9.697,7.853 8.994,7.023 8.112,6.393 7.051,5.962 5.99,5.531 4.932,5.216 3.879,5.016 2.825,4.816 1.772,4.717 0.718,4.717 2.234,4.621 3.651,4.341 4.968,3.879 6.285,3.416 7.466,2.781 8.512,1.975 9.557,1.169 10.383,0.14 10.99,-1.113 c 0.606,-1.253 0.909,-2.662 0.909,-4.226 0,-1.501 -0.179,-2.829 -0.538,-3.986 -0.359,-1.158 -0.866,-2.127 -1.521,-2.909 C 9.186,-13.017 8.376,-13.655 7.41,-14.15 6.444,-14.645 5.391,-15 4.25,-15.215 3.108,-15.431 1.835,-15.538 0.431,-15.538" id="path89"/>
    <path clip-path="url(#clipPath92)" transform="matrix(1.3333333,0,0,-1.3333333,4602.2793,71.605333)" style="fill:#f4ebd0;fill-opacity:1;fill-rule:nonzero;stroke:none" d="m 0,0 c 0,-2.745 0.726,-4.705 2.179,-5.878 1.452,-1.173 3.655,-1.76 6.608,-1.76 2.681,0 4.756,0.662 6.225,1.987 1.468,1.325 2.203,3.209 2.203,5.651 0,2.505 -0.731,4.401 -2.191,5.686 C 13.563,6.971 11.484,7.613 8.787,7.613 6.041,7.613 3.891,6.947 2.334,5.614 0.778,4.282 0,2.41 0,0 m -5.339,-0.048 c 0,4.166 1.213,7.274 3.639,9.326 2.426,2.05 5.906,3.076 10.439,3.076 4.517,0 7.953,-0.998 10.307,-2.993 2.354,-1.995 3.532,-5.132 3.532,-9.409 0,-4.054 -1.21,-7.119 -3.628,-9.194 -2.418,-2.075 -5.822,-3.112 -10.211,-3.112 -2.075,0 -3.963,0.259 -5.663,0.778 -1.699,0.518 -3.18,1.277 -4.441,2.274 -1.261,0.998 -2.238,2.287 -2.933,3.867 -0.694,1.58 -1.041,3.376 -1.041,5.387" id="path91"/>
    <path clip-path="url(#clipPath94)" transform="matrix(1.3333333,0,0,-1.3333333,4644.9107,70.552133)" style="fill:#f4ebd0;fill-opacity:1;fill-rule:nonzero;stroke:none" d="M 0,0 V -13.144 H -5.507 V 11.325 H 0 V 0.934 c 0,1.692 0.271,3.212 0.814,4.561 0.543,1.349 1.221,2.422 2.035,3.22 0.814,0.798 1.74,1.464 2.778,1.999 1.037,0.535 1.999,0.902 2.885,1.102 0.886,0.199 1.719,0.299 2.502,0.299 0.59,0 1.173,-0.028 1.747,-0.084 0.575,-0.056 1.246,-0.179 2.012,-0.371 0.766,-0.191 1.48,-0.439 2.142,-0.742 0.663,-0.304 1.333,-0.739 2.012,-1.305 C 19.605,9.046 20.18,8.396 20.65,7.662 21.121,6.927 21.504,6.002 21.8,4.884 22.095,3.767 22.243,2.53 22.243,1.173 V -13.144 H 16.76 V 0 c 0,2.266 -0.699,4.01 -2.095,5.232 C 13.268,6.452 11.5,7.063 9.362,7.063 8.26,7.063 7.167,6.911 6.081,6.608 4.996,6.305 3.994,5.87 3.077,5.303 2.159,4.737 1.417,3.99 0.85,3.065 0.283,2.139 0,1.117 0,0" id="path93"/>
    <path clip-path="url(#clipPath96)" transform="matrix(1.3333333,0,0,-1.3333333,4710.5273,70.934933)" style="fill:#f4ebd0;fill-opacity:1;fill-rule:nonzero;stroke:none" d="m 0,0 c 0,1.021 -0.184,1.979 -0.551,2.873 -0.367,0.894 -0.914,1.696 -1.64,2.406 -0.726,0.711 -1.704,1.273 -2.933,1.688 -1.229,0.415 -2.642,0.623 -4.237,0.623 -2.379,0 -4.358,-0.73 -5.938,-2.191 -1.58,-1.46 -2.371,-3.26 -2.371,-5.399 0,-2.235 0.786,-4.102 2.359,-5.602 1.572,-1.501 3.603,-2.251 6.093,-2.251 1.58,0 2.977,0.215 4.19,0.646 1.213,0.431 2.179,1.018 2.897,1.76 0.718,0.742 1.253,1.572 1.604,2.49 C -0.176,-2.039 0,-1.053 0,0 M 5.387,-12.163 H 0.048 v 9.41 c -0.304,-1.709 -0.806,-3.205 -1.508,-4.49 -0.703,-1.285 -1.449,-2.27 -2.239,-2.957 -0.79,-0.686 -1.676,-1.241 -2.658,-1.663 -0.981,-0.423 -1.828,-0.695 -2.538,-0.815 -0.71,-0.119 -1.424,-0.179 -2.142,-0.179 -3.959,0 -6.952,1.149 -8.979,3.448 -2.027,2.298 -3.041,5.435 -3.041,9.409 0,2.426 0.415,4.569 1.245,6.428 0.83,1.86 2.123,3.344 3.879,4.454 1.756,1.109 3.87,1.664 6.345,1.664 0.702,0 1.42,-0.056 2.155,-0.168 0.734,-0.112 1.624,-0.379 2.669,-0.802 1.045,-0.423 1.988,-0.974 2.825,-1.652 0.838,-0.679 1.632,-1.66 2.383,-2.945 0.75,-1.285 1.284,-2.781 1.604,-4.489 v 19.633 h 5.339 z" id="path95"/>
    <path clip-path="url(#clipPath98)" transform="matrix(1.3333333,0,0,-1.3333333,4763.2607,79.490133)" style="fill:#f4ebd0;fill-opacity:1;fill-rule:nonzero;stroke:none" d="m 0,0 -7.901,8.667 c -0.83,0.303 -1.58,0.455 -2.251,0.455 -1.532,0 -2.685,-0.567 -3.459,-1.7 -0.775,-1.134 -0.962,-2.466 -0.563,-3.998 0.559,-1.724 1.584,-3.029 3.077,-3.915 1.492,-0.886 3.372,-1.329 5.638,-1.329 2.011,0 3.831,0.606 5.459,1.82 M 2.299,28.491 V 24.206 H -9.457 c -1.98,0 -3.153,-0.487 -3.52,-1.461 -0.367,-0.974 0.152,-2.218 1.556,-3.735 L 2.993,3.424 c 0.862,1.404 1.516,2.964 1.963,4.68 0.447,1.716 0.671,3.412 0.671,5.088 h 5.051 c 0,-2.458 -0.379,-4.84 -1.137,-7.147 C 8.783,3.739 7.693,1.676 6.273,-0.144 l 5.243,-5.698 H 5.291 l -2.25,2.49 c -2.81,-2.059 -5.97,-3.089 -9.481,-3.089 -1.23,0 -2.435,0.12 -3.616,0.36 -1.181,0.239 -2.314,0.618 -3.399,1.137 -1.086,0.518 -2.036,1.153 -2.85,1.903 -0.814,0.75 -1.464,1.672 -1.951,2.766 -0.487,1.093 -0.73,2.294 -0.73,3.603 0,1.915 0.682,3.496 2.047,4.74 1.365,1.246 3.005,1.868 4.92,1.868 1.357,0 2.665,-0.344 3.927,-1.03 l -7.71,8.452 c -1.134,1.133 -1.836,2.367 -2.107,3.699 -0.271,1.333 -0.16,2.542 0.335,3.628 0.495,1.085 1.337,1.99 2.526,2.717 1.189,0.726 2.574,1.089 4.154,1.089 z" id="path97"/>
    <path clip-path="url(#clipPath100)" transform="matrix(1.3333333,0,0,-1.3333333,4820.9939,88.077867)" style="fill:#f4ebd0;fill-opacity:1;fill-rule:nonzero;stroke:none" d="m 0,0 h -11.684 l -13.192,34.333 h 5.794 L -5.842,0.144 h 0.096 L 7.159,34.333 h 5.866 z" id="path99"/>
    <path clip-path="url(#clipPath102)" transform="matrix(1.3333333,0,0,-1.3333333,4852.3247,82.6508)" style="fill:#f4ebd0;fill-opacity:1;fill-rule:nonzero;stroke:none" d="m 0,0 c 0.83,0.016 1.692,0.076 2.586,0.18 0.893,0.103 1.843,0.291 2.849,0.562 1.005,0.271 1.895,0.607 2.669,1.006 0.775,0.398 1.417,0.929 1.928,1.592 0.511,0.662 0.766,1.401 0.766,2.215 V 7.422 L 0.694,6.967 C -0.359,6.935 -1.357,6.827 -2.298,6.644 -3.24,6.46 -4.094,6.125 -4.86,5.639 -5.626,5.152 -6.01,4.549 -6.01,3.831 -6.01,2.937 -5.69,2.191 -5.052,1.592 -4.414,0.993 -3.663,0.578 -2.801,0.347 -1.939,0.116 -1.006,0 0,0 m -1.652,-4.07 c -1.229,0 -2.418,0.163 -3.568,0.491 -1.149,0.326 -2.194,0.802 -3.136,1.424 -0.942,0.623 -1.696,1.433 -2.262,2.43 -0.567,0.998 -0.851,2.119 -0.851,3.364 0,1.213 0.308,2.283 0.922,3.209 0.615,0.925 1.429,1.652 2.442,2.178 1.014,0.527 2.079,0.926 3.197,1.197 1.117,0.272 2.282,0.431 3.495,0.479 l 12.115,0.527 v 0.838 c 0,3.176 -2.777,4.765 -8.332,4.765 -5.459,0 -8.188,-1.525 -8.188,-4.574 h -5.052 c 0,1.325 0.235,2.506 0.706,3.544 0.471,1.037 1.102,1.883 1.892,2.538 0.79,0.654 1.751,1.197 2.885,1.628 1.133,0.431 2.314,0.734 3.543,0.91 1.229,0.175 2.57,0.263 4.023,0.263 2.218,0 4.157,-0.191 5.818,-0.574 1.66,-0.383 3.096,-0.986 4.309,-1.808 1.213,-0.822 2.131,-1.924 2.754,-3.304 0.622,-1.381 0.933,-3.029 0.933,-4.944 V -3.376 H 10.798 V 5.363 C 10.798,3.831 10.478,2.474 9.84,1.293 9.202,0.111 8.424,-0.806 7.506,-1.46 6.588,-2.115 5.526,-2.65 4.322,-3.065 3.116,-3.48 2.039,-3.751 1.089,-3.879 0.14,-4.006 -0.774,-4.07 -1.652,-4.07" id="path101"/>
    <path clip-path="url(#clipPath104)" transform="matrix(1.3333333,0,0,-1.3333333,4426.6667,129.4176)" style="fill:#f4ebd0;fill-opacity:1;fill-rule:nonzero;stroke:none" d="m 339.15,65.338 h 5.148 V 31.005 h -5.148 z" id="path103"/>
    <path clip-path="url(#clipPath106)" transform="matrix(1.3333333,0,0,-1.3333333,4897.8115,68.700133)" style="fill:#f4ebd0;fill-opacity:1;fill-rule:nonzero;stroke:none" d="m 0,0 16.089,-0.048 c 0,1.931 -0.794,3.46 -2.382,4.585 C 12.119,5.662 10.215,6.225 7.997,6.225 5.682,6.225 3.771,5.71 2.262,4.681 0.754,3.651 0,2.091 0,0 m 8.14,-14.533 c -4.102,0 -7.334,1.097 -9.696,3.292 -2.363,2.194 -3.544,5.303 -3.544,9.326 0,4.213 1.125,7.382 3.376,9.505 2.251,2.122 5.475,3.184 9.673,3.184 4.245,0 7.545,-1.089 9.9,-3.268 2.354,-2.179 3.532,-5.335 3.532,-9.469 V -3.591 H 0.048 c 0,-2.012 0.754,-3.584 2.262,-4.717 1.509,-1.134 3.484,-1.7 5.926,-1.7 2.155,0 3.891,0.359 5.208,1.077 1.316,0.719 2.15,1.748 2.502,3.089 h 5.051 C 19.896,-11.636 15.61,-14.533 8.14,-14.533" id="path105"/>
  </g>
</svg>